<?xml version="1.0" encoding="utf-8"?>
<!-- Svg Vector Icons : http://www.onlinewebfonts.com/icon -->
<!DOCTYPE svg PUBLIC "-//W3C//DTD SVG 1.1//EN" "http://www.w3.org/Graphics/SVG/1.1/DTD/svg11.dtd">
<svg version="1.1" xmlns="http://www.w3.org/2000/svg" xmlns:xlink="http://www.w3.org/1999/xlink" x="0px" y="0px" viewBox="0 0 1000 1000" enable-background="new 0 0 1000 1000" xml:space="preserve">
<metadata> Svg Vector Icons : http://www.onlinewebfonts.com/icon </metadata>
<g><g transform="translate(0.000000,512.000000) scale(0.100000,-0.100000)"><path d="M3652.2,5025.2c-171.6-38.6-441.6-177.4-657.5-337.4c-142.7-106.1-196.7-135-248.7-135c-108,0-443.5-57.8-636.3-108c-906.3-242.9-1463.5-790.6-1613.9-1583.1c-48.2-262.2-28.9-873.5,36.6-1124.1l48.2-183.2L488,1409.8c-289.2-457-379.9-829.1-387.6-1594.6c-1.9-246.8,1.9-302.7,28.9-343.2c65.6-100.3,216-109.9,302.7-17.4c44.3,46.3,46.3,63.6,59.8,428.1c27,659.5,94.5,939,320.1,1290c192.8,304.7,212.1,370.2,146.5,522.5c-82.9,194.7-127.3,713.4-86.8,1016.2c111.8,829.1,792.5,1345.9,1910.9,1448.1c79.1,5.8,162,19.3,183.2,27c21.2,7.7,121.5,77.1,221.7,152.3c198.6,150.4,443.5,283.5,549.5,300.8c36.6,5.8,98.3,13.5,135,19.3c84.8,13.5,175.5,90.6,189,158.1c11.6,59.8-23.1,156.2-67.5,194.7C3947.2,5050.3,3789.1,5056.1,3652.2,5025.2z"/><path d="M6047,5025.2c-144.6-61.7-142.7-264.2,0-341.3c21.2-9.6,90.6-27,156.2-34.7c156.2-23.1,377.9-136.9,607.4-308.5c100.3-75.2,194.7-144.6,212.1-152.3c17.3-9.6,100.2-23.1,185.1-28.9c252.6-21.2,572.7-84.8,753.9-148.5c688.4-241,1083.7-678.7,1166.6-1299.6c40.5-302.7-3.8-821.4-86.8-1016.2c-65.6-152.3-46.3-217.9,146.6-522.5c225.6-350.9,293.1-630.5,320.1-1290c13.5-364.4,15.4-381.8,59.8-428.1c86.8-92.5,237.2-82.9,302.7,17.4c27,40.5,30.9,96.4,28.9,343.2c-7.7,765.5-98.3,1137.6-387.6,1594.6l-92.5,144.6l48.2,183.2c65.5,250.7,84.8,861.9,36.6,1124.1c-150.4,792.5-707.6,1340.1-1613.9,1583.1c-192.8,50.1-528.3,108-636.3,108c-52.1,0-106.1,28.9-248.8,135c-221.7,165.8-487.8,298.9-667.2,337.4C6174.3,5059.9,6126.1,5059.9,6047,5025.2z"/><path d="M3659.9,3436.4c-94.5-38.6-136.9-146.5-98.3-241c34.7-82.9,55.9-98.3,314.3-216c308.5-142.7,497.5-260.3,686.4-426.1c229.5-202.5,302.7-242.9,435.8-242.9c136.9,0,196.7,30.8,383.7,200.5c229.5,210.2,430,335.5,784.8,489.8c190.9,82.9,233.3,109.9,271.9,185.1c19.3,36.6,21.2,69.4,7.7,113.8c-44.3,152.3-150.4,185.1-343.2,106c-403-169.7-719.2-360.6-962.2-580.4L5000,2699.8l-158.1,138.8c-88.7,75.2-212.1,171.6-273.8,216c-136.9,92.5-538,298.9-694.2,358.6C3756.3,3455.6,3721.6,3459.5,3659.9,3436.4z"/><path d="M3141.2,3251.3c-79.1-42.4-106-84.8-108-167.8c0-104.1,81-192.8,179.3-192.8c179.3,0,270,185.1,154.3,312.4C3301.3,3274.4,3216.4,3291.7,3141.2,3251.3z"/><path d="M6704.6,3260.9c-55.9-23.1-123.4-111.8-123.4-165.8c0-121.5,82.9-204.4,206.3-204.4c148.5,0,239.1,202.5,138.8,310.4C6860.7,3272.5,6783.6,3293.7,6704.6,3260.9z"/><path d="M2533.8,2655.4c-25.1-13.5-57.8-46.3-71.3-71.3c-108-194.7,146.5-387.6,302.7-231.4C2921.4,2508.9,2728.6,2763.4,2533.8,2655.4z"/><path d="M3710,2651.6c-57.8-40.5-98.3-136.9-84.8-206.3c5.8-28.9,36.6-73.3,67.5-100.3c106-88.7,256.4-50.1,304.7,79C4061,2587.9,3852.7,2751.8,3710,2651.6z"/><path d="M6064.4,2634.2c-136.9-115.7-63.6-337.4,113.8-337.4c142.7,0,235.2,135,181.3,262.2C6307.3,2686.3,6166.6,2721,6064.4,2634.2z"/><path d="M7284.9,2659.3c-119.6-65.6-142.7-212.1-50.1-306.6c94.5-94.5,246.8-67.5,308.5,54C7624.3,2566.7,7441.1,2746.1,7284.9,2659.3z"/><path d="M1916.8,2044.2c-67.5-63.6-77.1-115.7-59.8-298.9c19.3-177.4,96.4-470.5,190.9-715.4c48.2-121.5,52.1-140.8,23.1-140.8c-42.4-1.9-113.8-63.6-135-119.6c-9.6-25.1-27-144.6-40.5-266.1c-73.3-696.1-233.3-1168.5-491.7-1438.5c-69.4-73.3-131.1-152.3-136.9-175.5c-28.9-111.8,69.4-237.2,183.2-237.2c144.6,0,374.1,241,536,565l36.6,71.3l69.4-225.6c38.6-125.3,106.1-331.7,150.4-458.9c152.3-433.8,162-582.3,77.1-1234.1c-30.8-242.9-57.8-509.1-57.8-588.1c0-360.6,146.5-628.6,572.7-1043.1c248.7-241,618.9-530.3,701.9-547.6c71.3-15.4,189,40.5,212.1,100.3c25.1,69.4,21.2,146.5-11.6,192.8c-15.4,23.1-113.8,106.1-217.9,183.2c-362.5,271.9-738.5,671-821.4,871.5c-44.4,108-38.6,401.1,17.3,811.8c55.9,404.9,63.6,769.3,19.3,981.4c-15.4,77.1-65.6,244.9-108,370.2c-256.5,744.3-304.7,975.7-320.1,1509.8l-11.6,354.8l136.9-113.8c252.6-212.1,617-370.2,1104.9-478.2c387.6-86.8,659.4-57.8,998.8,104.1c163.9,79.1,264.2,148.5,393.3,268l71.3,67.5l73.3-67.5c127.3-119.5,227.5-189,391.4-268c339.4-162,611.2-190.9,998.8-104.1c487.8,108,852.2,266.1,1104.9,478.2l136.9,113.8l-11.6-354.8c-15.4-534.1-63.6-765.5-320.1-1509.8c-42.4-125.3-92.5-293.1-108-370.2c-44.3-212.1-36.6-576.5,19.3-981.4c55.9-410.7,61.7-703.8,17.4-811.8c-17.4-42.4-67.5-127.3-113.8-190.9c-104.1-146.5-472.4-503.3-674.9-655.6c-239.1-177.4-279.6-219.8-279.6-291.2c0-34.7,7.7-84.8,17.4-109.9c23.1-59.8,140.8-115.7,212.1-100.3c82.9,17.3,453.1,306.6,701.9,547.6c426.1,414.6,572.7,682.6,572.7,1043.1c0,79-27,345.2-57.8,588.1c-84.9,651.7-75.2,800.2,77.1,1234.1c44.3,127.3,111.8,333.6,150.4,458.9l69.4,225.6l36.6-71.3c154.3-308.5,391.4-565,522.6-565c111.8,0,204.4,88.7,204.4,198.6c0,52.1-23.1,86.8-163.9,233.3c-237.2,248.7-403,744.3-472.4,1419.2c-13.5,121.5-30.8,241-40.5,266.1c-21.2,55.9-92.6,117.6-135,119.6c-28.9,0-25.1,19.3,23.1,140.8c140.8,364.4,233.3,815.6,190.9,929.4c-50.1,133-202.5,167.8-310.4,71.3c-52.1-46.3-59.8-67.5-59.8-144.6c1.9-98.3-115.7-530.3-210.2-763.6c-102.2-256.4-248.7-406.8-528.3-547.6c-291.2-144.6-821.4-275.7-1020-254.5c-140.8,17.3-345.1,82.9-457,148.5c-204.4,119.5-364.4,323.9-364.4,464.7c0,36.6-21.2,75.2-61.7,115.7l-63.6,61.7l63.6,61.7c81,79,84.9,171.6,7.7,258.4c-46.3,50.1-69.4,61.7-138.8,61.7c-69.4,0-92.5-11.6-138.8-61.7c-77.1-86.8-73.3-179.3,9.6-258.4l61.7-61.7l-61.7-61.7c-42.4-40.5-63.6-79-63.6-115.7c0-140.8-160-345.2-364.4-464.7c-111.8-65.6-325.9-135-460.8-148.5c-192.8-21.2-726.9,111.8-1016.2,254.5c-275.7,136.9-426.1,291.2-528.3,547.6c-94.5,233.3-212.1,665.2-210.2,763.6c0,77.1-7.7,98.3-59.8,144.6C2092.3,2098.2,1982.4,2104,1916.8,2044.2z"/><path d="M3089.2,2028.8c-123.4-123.4-30.9-329.7,146.5-329.7c69.4,0,183.2,113.8,183.2,183.2C3418.9,2059.6,3212.6,2152.2,3089.2,2028.8z"/><path d="M4292.3,2050c-98.3-77.1-100.3-219.8-1.9-302.7c65.6-55.9,127.3-61.7,208.2-19.3c71.3,36.6,96.4,82.9,96.4,173.5C4595.1,2048.1,4406.1,2140.6,4292.3,2050z"/><path d="M5460.8,2028.8c-92.5-94.5-73.3-241,40.5-300.8c81-42.4,142.7-36.6,208.2,19.3c69.4,57.8,90.6,127.3,61.7,212.1C5726.9,2092.4,5561.1,2129,5460.8,2028.8z"/><path d="M6666,2050c-104.1-82.9-111.9-192.8-19.3-285.4c127.3-127.3,318.2-46.3,320.1,133.1C6966.8,2048.1,6779.7,2142.5,6666,2050z"/><path d="M2558.9,1477.3c-127.3-54-162-192.8-75.2-295c25.1-30.9,73.3-61.7,106-67.5c185.1-38.6,306.6,175.5,179.3,312.4C2703.5,1496.6,2637.9,1512,2558.9,1477.3z"/><path d="M3771.7,1490.8c-54-7.7-135-88.7-144.6-146.6c-17.4-84.8,27-173.5,106-212.1c65.6-30.8,81-32.8,144.6-7.7c98.3,36.6,150.4,140.8,119.6,235.2c-11.6,36.6-32.8,75.2-48.2,88.7C3914.4,1477.3,3823.8,1500.5,3771.7,1490.8z"/><path d="M6116.4,1479.2c-92.6-30.8-144.6-138.8-113.8-233.3c38.6-117.6,160-167.8,269.9-111.8c115.7,59.8,138.8,210.2,46.3,302.7C6261.1,1492.7,6201.3,1506.2,6116.4,1479.2z"/><path d="M7319.6,1492.7c-23.1-3.9-65.5-34.7-92.6-65.6c-88.7-108-52.1-258.4,79.1-306.6c163.9-63.6,327.8,144.6,227.5,287.3c-27,36.6-146.6,106.1-165.8,96.4C7364,1502.4,7342.8,1496.6,7319.6,1492.7z"/><path d="M3148.9,887.3c-185.1-75.2-133-364.4,67.5-364.4c90.6,0,136.9,25.1,173.5,96.4c42.4,82.9,34.7,146.5-23.1,212.1C3307,895,3222.2,918.1,3148.9,887.3z"/><path d="M4344.4,895c-108-38.6-160-171.6-108-271.9c38.6-75.2,84.8-100.3,179.3-100.3c138.8,0,227.5,162,160,291.2C4539.2,881.5,4421.5,923.9,4344.4,895z"/><path d="M5497.5,879.6c-165.8-92.5-102.2-356.7,86.8-356.7c94.5,0,140.8,25.1,179.3,100.3C5848.4,787,5659.5,970.2,5497.5,879.6z"/><path d="M6704.6,889.2c-57.9-23.1-123.4-111.8-123.4-167.8c0-61.7,50.1-154.3,94.5-179.3c21.2-9.6,69.4-19.3,108-19.3c202.5,0,254.5,298.9,63.6,364.4C6777.8,912.3,6760.5,912.3,6704.6,889.2z"/></g></g>
</svg>